
<svg xmlns="http://www.w3.org/2000/svg" viewBox="0 0 207.33 40.33"><defs><style>.cls-1{fill:white;}.cls-2{fill:#f05762;}.cls-3{fill:#5dc8d8;}</style></defs><title>Asset 1</title><g id="Layer_2" data-name="Layer 2"><g id="Layer_1-2" data-name="Layer 1"><path class="cls-1" d="M15.81,21a10.26,10.26,0,0,0-2.46-1.25q-1.41-.51-3-1a9.15,9.15,0,0,0-1-.23,9.8,9.8,0,0,1-1-.24,2.45,2.45,0,0,1-.8-.39.79.79,0,0,1-.33-.66.85.85,0,0,1,.16-.51,1.3,1.3,0,0,1,.43-.38,2.26,2.26,0,0,1,.62-.23,3.26,3.26,0,0,1,.69-.08,4.25,4.25,0,0,1,.76.08,6.28,6.28,0,0,1,.84.22,5.46,5.46,0,0,1,.81.34,2.78,2.78,0,0,1,.67.49,2.25,2.25,0,0,0,.47.37,1,1,0,0,0,.49.13,1,1,0,0,0,.31-.05.81.81,0,0,0,.31-.2l.56-.58L15.2,16l.85-.86.6-.57a1.07,1.07,0,0,0,.33-.4,1.44,1.44,0,0,0,.11-.4.93.93,0,0,0-.24-.56,8.75,8.75,0,0,0-1.76-1.34A9.05,9.05,0,0,0,13.2,11a11,11,0,0,0-2-.4A21.24,21.24,0,0,0,9,10.52,12.94,12.94,0,0,0,5.55,11,9.29,9.29,0,0,0,2.78,12.2,6,6,0,0,0,.94,14.13a4.88,4.88,0,0,0-.66,2.51,6.71,6.71,0,0,0,.37,2.25A5.26,5.26,0,0,0,1.9,20.83a8.82,8.82,0,0,0,2.32,1.63,18.08,18.08,0,0,0,3.59,1.29,19.36,19.36,0,0,1,2.19.69q.8.32.8.93a.65.65,0,0,1-.21.5,1.4,1.4,0,0,1-.55.3,4.48,4.48,0,0,1-.8.16,8.32,8.32,0,0,1-1,.05A3.89,3.89,0,0,1,6.65,26,9.7,9.7,0,0,1,4.71,24.7q-.28-.22-.49-.34a.76.76,0,0,0-.4-.13l-.28.08a.84.84,0,0,0-.3.2l-2.89,3a1,1,0,0,0-.35.71,1.38,1.38,0,0,0,.43.91,9.65,9.65,0,0,0,3.7,2.54,12.13,12.13,0,0,0,4.35.8,14.39,14.39,0,0,0,3.7-.46,10,10,0,0,0,3.06-1.35,6.7,6.7,0,0,0,2.07-2.18,5.72,5.72,0,0,0,.76-3,5.43,5.43,0,0,0-.61-2.69A5.56,5.56,0,0,0,15.81,21Zm23.05-7.33a11.44,11.44,0,0,0-3.6-2.37,11.72,11.72,0,0,0-8.88,0,11.44,11.44,0,0,0-3.6,2.37,11.16,11.16,0,0,0-2.42,3.52A10.7,10.7,0,0,0,21,27.05a11,11,0,0,0,4.07,3.89A12,12,0,0,0,27.8,32a11.74,11.74,0,0,0,3,.39,11.59,11.59,0,0,0,8-3.17,10.88,10.88,0,0,0,2.42-3.46,10.38,10.38,0,0,0,.89-4.28,10.61,10.61,0,0,0-.89-4.31A11.16,11.16,0,0,0,38.86,13.68Zm-4.57,9.49a3.82,3.82,0,0,1-.74,1.27,3.35,3.35,0,0,1-1.15.84,3.67,3.67,0,0,1-1.52.3,3.75,3.75,0,0,1-1.53-.3,3.32,3.32,0,0,1-1.16-.84,3.82,3.82,0,0,1-.74-1.27,4.73,4.73,0,0,1-.26-1.59A4.66,4.66,0,0,1,27.46,20a4,4,0,0,1,.74-1.28,3.5,3.5,0,0,1,1.16-.87,3.54,3.54,0,0,1,1.53-.32,3.47,3.47,0,0,1,1.52.32,3.54,3.54,0,0,1,1.15.87A4,4,0,0,1,34.29,20a4.66,4.66,0,0,1,.26,1.57A4.73,4.73,0,0,1,34.29,23.17ZM60.71,26q-.17-.26-.33-.52a4,4,0,0,0-.31-.46,1.85,1.85,0,0,0-.34-.33.77.77,0,0,0-.39-.15l-.25,0a1.1,1.1,0,0,0-.31.11h0a3.82,3.82,0,0,1-.66.4,5.63,5.63,0,0,1-.8.31,7.07,7.07,0,0,1-.86.2,4.7,4.7,0,0,1-.8.08,3.51,3.51,0,0,1-1.5-.31A3.46,3.46,0,0,1,53,24.44a4,4,0,0,1-.75-1.28,4.58,4.58,0,0,1-.27-1.58A4.43,4.43,0,0,1,52.21,20,4.25,4.25,0,0,1,53,18.73a3.46,3.46,0,0,1,1.15-.88,3.41,3.41,0,0,1,1.5-.32,4.91,4.91,0,0,1,.81.08,7,7,0,0,1,.87.2,6.63,6.63,0,0,1,.8.3,3.51,3.51,0,0,1,.64.37,1.38,1.38,0,0,0,.69.24,1,1,0,0,0,.87-.65l2.13-3.86a.51.51,0,0,0,.14-.25,1.19,1.19,0,0,0,0-.27,1.16,1.16,0,0,0-.24-.78,2.74,2.74,0,0,0-.61-.52A17.81,17.81,0,0,0,58.86,11a9.37,9.37,0,0,0-3.32-.57,10.66,10.66,0,0,0-4.28.87,11.47,11.47,0,0,0-3.54,2.37,11.25,11.25,0,0,0-2.41,3.52,10.6,10.6,0,0,0-.89,4.31,10.37,10.37,0,0,0,.89,4.28,11,11,0,0,0,2.41,3.46,11.45,11.45,0,0,0,3.54,2.32,10.89,10.89,0,0,0,4.28.85A10.27,10.27,0,0,0,59,31.86a16.26,16.26,0,0,0,3-1.42,2.91,2.91,0,0,0,.53-.42.94.94,0,0,0,.27-.64,1.06,1.06,0,0,0-.22-.56Zm12.06-14.8a1.79,1.79,0,0,0-.39-.23,1,1,0,0,0-.38-.09H66.57a1,1,0,0,0-.81.33,1.21,1.21,0,0,0-.27.79v19A1,1,0,0,0,66.57,32H72q1.19,0,1.19-1.1V12a.91.91,0,0,0-.12-.46A1.17,1.17,0,0,0,72.77,11.15Zm24.1-.27H93.44a3.52,3.52,0,0,0-.54,0,.59.59,0,0,0-.33.16,1.09,1.09,0,0,0-.23.38q-.1.25-.25.7l-.65,2a6.46,6.46,0,0,0-.76-1.31,5.51,5.51,0,0,0-1.16-1.15,5.89,5.89,0,0,0-1.58-.82,6.1,6.1,0,0,0-2-.31,11.07,11.07,0,0,0-4.32.82,9.92,9.92,0,0,0-3.35,2.27,10.2,10.2,0,0,0-2.17,3.46,12.16,12.16,0,0,0-.77,4.4,11.82,11.82,0,0,0,.78,4.33,10.06,10.06,0,0,0,5.55,5.74,10.8,10.8,0,0,0,4.29.83h.24A5.19,5.19,0,0,0,88,32.14a4.39,4.39,0,0,0,1.28-.72,5,5,0,0,0,.89-.95l.66-1,.48,1.25.2.52a1.24,1.24,0,0,0,.23.4,1,1,0,0,0,.35.26,1.38,1.38,0,0,0,.58.1h4.23a1.46,1.46,0,0,0,.9-.3,1.08,1.08,0,0,0,.4-.93V12.11a1.12,1.12,0,0,0-.39-.89A1.36,1.36,0,0,0,96.87,10.89ZM90.33,23.17a3.88,3.88,0,0,1-.81,1.27,3.67,3.67,0,0,1-1.25.84,4.06,4.06,0,0,1-1.57.3,3.69,3.69,0,0,1-1.51-.3A3.32,3.32,0,0,1,84,24.44a3.82,3.82,0,0,1-.74-1.27A4.73,4.73,0,0,1,83,21.58,4.67,4.67,0,0,1,83.28,20,4,4,0,0,1,84,18.72a3.48,3.48,0,0,1,2.67-1.2,3.86,3.86,0,0,1,2.82,1.2A4,4,0,0,1,90.33,20a4.2,4.2,0,0,1,.29,1.57A4.26,4.26,0,0,1,90.33,23.17ZM109.6.36a1.79,1.79,0,0,0-.39-.23,1,1,0,0,0-.36-.09h-5.21a1,1,0,0,0-.82.32,1.23,1.23,0,0,0-.26.8V30.93a1,1,0,0,0,1.09,1.1h5.21a1.27,1.27,0,0,0,.87-.27,1.05,1.05,0,0,0,.3-.83V1.16A.91.91,0,0,0,109.9.7,1.17,1.17,0,0,0,109.6.36Zm12.24,10.8a1.79,1.79,0,0,0-.39-.23,1,1,0,0,0-.38-.09h-5.43a1,1,0,0,0-.81.33,1.21,1.21,0,0,0-.27.79v19a1,1,0,0,0,1.09,1.1h5.43q1.19,0,1.19-1.1V12a.91.91,0,0,0-.12-.46A1.17,1.17,0,0,0,121.84,11.15Zm15.64-.7h-1.93V4a1.1,1.1,0,0,0-.26-.77.89.89,0,0,0-.69-.29l-5.38.84a1.46,1.46,0,0,0-.86.44,1.13,1.13,0,0,0-.29.77v5.47h-1.22a1.12,1.12,0,0,0-1.28,1.25v3.36a1.15,1.15,0,0,0,1.28,1.31h1.22V30.93a1,1,0,0,0,1.13,1.1h5.14q1.22,0,1.22-1.1V16.38h1.93a1.17,1.17,0,0,0,.91-.39,1.34,1.34,0,0,0,.35-.93V11.7a1.18,1.18,0,0,0-.36-.94A1.32,1.32,0,0,0,137.48,10.45Zm26.24.43h-5.84a1.51,1.51,0,0,0-.85.22,1.35,1.35,0,0,0-.5.71L152.8,23.15q-.48-1.29-1-2.75l-1-2.92-1-2.92q-.49-1.45-.94-2.75a1.19,1.19,0,0,0-.43-.68,1.32,1.32,0,0,0-.82-.25h-5.95q-1,0-1,.78a2.32,2.32,0,0,0,0,.31.28.28,0,0,0,.09.2l8.2,20.26L146.84,39a2.13,2.13,0,0,0-.11.54.59.59,0,0,0,.34.61,1.82,1.82,0,0,0,.71.14h5.4a1.2,1.2,0,0,0,.77-.27,1.27,1.27,0,0,0,.44-.68q.52-1.55,1.27-3.57t1.63-4.32q.88-2.31,1.86-4.81t1.94-5l1.9-5,1.76-4.62a1.79,1.79,0,0,0,0-.32.86.86,0,0,0-.23-.62A1.11,1.11,0,0,0,163.72,10.89Zm6.53,17.2a2.79,2.79,0,0,0-.87-.58,2.71,2.71,0,0,0-1.09-.22,2.58,2.58,0,0,0-1.05.22,2.83,2.83,0,0,0-.86.58,2.76,2.76,0,0,0-.59.86,2.6,2.6,0,0,0-.22,1.06,2.53,2.53,0,0,0,.22,1,2.79,2.79,0,0,0,.59.85,2.82,2.82,0,0,0,.86.58,2.58,2.58,0,0,0,1.05.22,2.71,2.71,0,0,0,1.09-.22,2.79,2.79,0,0,0,.87-.58A2.64,2.64,0,0,0,171,30a2.73,2.73,0,0,0-.21-1.06A2.63,2.63,0,0,0,170.26,28.09ZM180.74,3a2.79,2.79,0,0,0-.87-.58,2.71,2.71,0,0,0-1.09-.22,2.58,2.58,0,0,0-1.05.22,2.82,2.82,0,0,0-.86.58,2.76,2.76,0,0,0-.59.86,2.6,2.6,0,0,0-.22,1.06,2.53,2.53,0,0,0,.22,1,2.8,2.8,0,0,0,1.44,1.43,2.58,2.58,0,0,0,1.05.22,2.71,2.71,0,0,0,1.09-.22,2.78,2.78,0,0,0,.87-.58,2.64,2.64,0,0,0,.78-1.9,2.72,2.72,0,0,0-.21-1.06A2.63,2.63,0,0,0,180.74,3Zm-1,7.87h-1.8a1,1,0,0,0-.73.26,1,1,0,0,0-.25.69V31.08a.85.85,0,0,0,1,.95h1.8a1,1,0,0,0,.72-.24.91.91,0,0,0,.26-.71V11.79a.91.91,0,0,0-.27-.69A1,1,0,0,0,179.7,10.84Zm26.75,6.34a11.1,11.1,0,0,0-5.94-5.9,11.23,11.23,0,0,0-8.68,0,11.34,11.34,0,0,0-3.53,2.37,11,11,0,0,0-2.38,3.52,11.16,11.16,0,0,0,0,8.63,11.06,11.06,0,0,0,2.38,3.51,11.18,11.18,0,0,0,3.53,2.36,11.36,11.36,0,0,0,8.68,0,11.06,11.06,0,0,0,5.94-5.87,11,11,0,0,0,0-8.63Zm-3.22,7.24a7.71,7.71,0,0,1-1.66,2.41,8,8,0,0,1-2.44,1.64,7.33,7.33,0,0,1-3,.6,7.25,7.25,0,0,1-2.94-.6,7.89,7.89,0,0,1-2.42-1.64,7.64,7.64,0,0,1-1.64-2.41,7.5,7.5,0,0,1,0-5.86,7.78,7.78,0,0,1,4.06-4.07,7.25,7.25,0,0,1,2.94-.6,7.33,7.33,0,0,1,3,.6,7.86,7.86,0,0,1,4.1,4.07,7.37,7.37,0,0,1,0,5.86Z"/><ellipse class="cls-2" cx="69.69" cy="4.18" rx="4.21" ry="4.18"/><ellipse class="cls-3" cx="118.41" cy="4.18" rx="4.21" ry="4.18"/></g></g></svg>